# xmcd
#
# Track frame offsets:
#	180
#	12497
#	24273
#	36692
#	48750
#	60732
#	73260
#	84397
#	96050
#	109119
#	120897
#	132260
#	144281
#	154172
#	166628
#	177113
#
# Disc length: 2498 seconds
#
# Revision: 0
# Processed by: cddbd v1.5.2PL0 Copyright (c) Steve Scherf et al.
# Submitted via: audiograbber 1.83.01
#
DISCID=c809c010
DTITLE=Varios Artists - Country Legends Vol.3 - CD2
DYEAR=2005
DGENRE=Country
TTITLE0=THE DELMORE BROTHERS - Boogie Woogie Baby
TTITLE1=JIMMIE WIDENER - I´ve Got The Hesitation Blues
TTITLE2=SONNY HALL - Better Make Up Your Mind
TTITLE3=FLOYD TILLMAN - I Love You So Much It Hurts
TTITLE4=EDDIE MILLER - Don´t Break My Heart
TTITLE5=BILL HALEY - A Yodeller´s Lullaby
TTITLE6=TOMMY SCOTT - Gonna Paint The Town Red
TTITLE7=CURLEY WILLIAMS - Fiddlin´ Boogie
TTITLE8=LITTLE JIMMY DICKENS - Country Boy
TTITLE9=TINY COLBERT - Holes In My Soles
TTITLE10=EDDIE KIRK - Candy Kisses
TTITLE11=LEON MC AULIFFE - Take It Away Len
TTITLE12=JIMMY PRINCE - Live And Let Live
TTITLE13=DICKIE MC BRIDE - I Don´t Get No.Lovin´
TTITLE14=GENE AUTREY - Don´t Fence Me In
TTITLE15=ANDY SCHRODER - Prairie Dog Ramble
EXTD=
EXTT0=
EXTT1=
EXTT2=
EXTT3=
EXTT4=
EXTT5=
EXTT6=
EXTT7=
EXTT8=
EXTT9=
EXTT10=
EXTT11=
EXTT12=
EXTT13=
EXTT14=
EXTT15=
PLAYORDER=
